<svg width="148" height="29" viewBox="0 0 148 29" fill="none" xmlns="http://www.w3.org/2000/svg">
<path d="M26 10.2867V14.2371C26 14.6331 25.8427 15.0128 25.5627 15.2927C25.2828 15.5727 24.9031 15.73 24.5071 15.73L9.37152 15.73C5.09956 15.73 2.68798 17.177 1.37883 18.4631C1.26506 18.5796 1.11861 18.6587 0.958863 18.6901C0.799121 18.7215 0.633616 18.7037 0.48424 18.6389C0.334865 18.5742 0.20866 18.4657 0.122331 18.3276C0.0360013 18.1896 -0.00638329 18.0286 0.000778551 17.866L0.000778551 10.9528C0.000746018 10.8091 0.0294052 10.6668 0.0850844 10.5343C0.140764 10.4018 0.222337 10.2818 0.325021 10.1812C0.427705 10.0807 0.549431 10.0017 0.683061 9.94877C0.816691 9.89589 0.959537 9.87023 1.10322 9.87329L25.5636 9.87329C25.6755 9.87314 25.7831 9.91595 25.8643 9.99288C25.9456 10.0698 25.9941 10.175 26 10.2867V10.2867Z" fill="#0E1823"/>
<path d="M25.6096 0.0656813C25.6417 0.0342064 25.6824 0.0128387 25.7265 0.00423928C25.7706 -0.00436019 25.8163 0.000186594 25.8579 0.0173043C25.8995 0.034422 25.9351 0.0633594 25.9604 0.100538C25.9857 0.137716 25.9995 0.181496 26.0001 0.22645V5.78459C26.0001 6.18053 25.8428 6.56025 25.5628 6.84022C25.2829 7.12019 24.9031 7.27748 24.5072 7.27748L11.6454 7.27748C11.5175 7.27748 11.3948 7.22666 11.3043 7.13621C11.2139 7.04576 11.1631 6.92308 11.1631 6.79516L11.1631 2.72991C11.1631 2.44361 11.2768 2.16905 11.4793 1.96661C11.6817 1.76417 11.9563 1.65044 12.2426 1.65044L21.3377 1.65044C23.6804 1.65044 25.0125 0.662837 25.6096 0.0656813Z" fill="#0E1823"/>
<path d="M7.76339 19.082L7.76339 27.6489C7.76354 27.7608 7.72073 27.8684 7.6438 27.9496C7.56686 28.0308 7.46168 28.0794 7.34997 28.0853H3.21582L3.21582 21.953C3.21582 20.3682 5.25993 19.082 7.76339 19.082Z" fill="#0E1823"/>
<path d="M16.1237 19.1969V27.6719C16.1269 27.7251 16.1191 27.7783 16.1009 27.8284C16.0827 27.8784 16.0544 27.9242 16.0178 27.9629C15.9813 28.0017 15.9371 28.0325 15.8882 28.0535C15.8393 28.0746 15.7866 28.0854 15.7333 28.0853H11.5762L11.5762 19.1969C11.5762 19.128 11.668 19.082 11.7599 19.082H15.94C16.0548 19.082 16.1237 19.128 16.1237 19.1969Z" fill="#0E1823"/>
<path d="M23.9782 19.1969V27.7867C23.9814 27.8248 23.9766 27.8631 23.9642 27.8993C23.9518 27.9354 23.932 27.9686 23.9061 27.9966C23.8802 28.0247 23.8487 28.0471 23.8137 28.0624C23.7787 28.0776 23.7408 28.0854 23.7026 28.0853H19.4307V19.1969C19.4307 19.128 19.4996 19.082 19.6144 19.082H23.7945C23.9093 19.082 23.9782 19.128 23.9782 19.1969Z" fill="#0E1823"/>
<path d="M46.0558 6.50635C46.8526 6.49604 47.6432 6.64783 48.3796 6.95252C49.1159 7.25722 49.7826 7.70845 50.3392 8.27878C50.9101 8.82873 51.3619 9.49004 51.6668 10.2218C51.9717 10.9535 52.1231 11.74 52.1116 12.5326C52.1155 13.3303 51.9617 14.121 51.6591 14.8591C51.3565 15.5973 50.9111 16.2683 50.3484 16.8338C49.7856 17.3993 49.1167 17.848 48.3801 18.1542C47.6434 18.4603 46.8535 18.618 46.0558 18.6179H42.4223V22.4877H40V6.50635L46.0558 6.50635ZM42.4223 16.1956H46.0558C46.5354 16.1956 47.0103 16.1007 47.4531 15.9162C47.8959 15.7318 48.2978 15.4615 48.6355 15.121C48.9733 14.7804 49.2404 14.3764 49.4212 13.9321C49.6021 13.4879 49.6932 13.0122 49.6893 12.5326C49.6939 12.0591 49.6019 11.5897 49.4191 11.1529C49.2362 10.7161 48.9663 10.3211 48.6258 9.99212C48.2913 9.65075 47.8911 9.38056 47.4495 9.19781C47.0078 9.01505 46.5337 8.92351 46.0558 8.92867H42.4223V16.1956Z" fill="#0E1823"/>
<path d="M57.4292 6.00391V8.42623H55.0068V6.00391H57.4292ZM57.4292 9.90325V22.4875H55.0068V9.90325H57.4292Z" fill="#0E1823"/>
<path d="M63.7202 6.50781V22.4892H61.2979V6.50781H63.7202Z" fill="#0E1823"/>
<path d="M70.0131 6.50781V22.4892H67.5908V6.50781H70.0131Z" fill="#0E1823"/>
<path d="M83.5724 21.7786C82.5534 22.4768 81.3633 22.884 80.1302 22.9564C78.8971 23.0287 77.6676 22.7636 76.5739 22.1894C75.4802 21.6152 74.5637 20.7537 73.9231 19.6976C73.2824 18.6415 72.9418 17.4307 72.9378 16.1955C72.9198 15.3 73.0862 14.4105 73.4267 13.5821C73.7672 12.7537 74.2745 12.0043 74.9171 11.3804C75.5407 10.7457 76.2859 10.2432 77.1082 9.90316C77.9304 9.56308 78.8128 9.39235 79.7026 9.40116C81.089 9.37975 82.4456 9.80432 83.5724 10.6123V9.90335H85.9947V22.4876H83.5724V21.7786ZM83.5724 18.2042V14.1572C83.3605 13.7728 83.1026 13.4157 82.8044 13.0937C81.9848 12.2766 80.8747 11.8177 79.7174 11.8177C78.56 11.8177 77.4499 12.2766 76.6304 13.0937C75.8831 13.9263 75.4833 15.0136 75.5134 16.132C75.5436 17.2504 76.0013 18.3146 76.7924 19.1057C77.5835 19.8968 78.6477 20.3545 79.7661 20.3846C80.8845 20.4148 81.9718 20.015 82.8044 19.2677C83.1026 18.9457 83.3605 18.5886 83.5724 18.2042V18.2042Z" fill="#0E1823"/>
<path d="M92.3159 13.8026V22.4875H89.8936V9.87369H92.3159V10.3759C93.3162 9.72273 94.4889 9.38328 95.6835 9.40105V11.8234C95.178 11.8161 94.6763 11.9119 94.2091 12.1049C93.7418 12.2979 93.3188 12.584 92.9658 12.9459C92.7058 13.1958 92.4865 13.4849 92.3159 13.8026V13.8026Z" fill="#0E1823"/>
<path d="M105.284 11.5888L108.209 6.50781H110.217V20.0669H112.64V22.4892H105.373V20.0669H107.795V12.0319L107.411 12.6818L105.284 11.5888Z" fill="#0E1823"/>
<path d="M114.915 14.1276L116.894 6.47656L125.254 6.47656V8.89888L118.844 8.89888L118.105 11.6166C118.69 11.4398 119.297 11.3502 119.907 11.3507C120.704 11.2938 121.505 11.4017 122.258 11.6677C123.012 11.9336 123.703 12.3519 124.288 12.8965C124.872 13.4411 125.339 14.1003 125.658 14.833C125.977 15.5658 126.141 16.3563 126.141 17.1554C126.141 17.9546 125.977 18.7451 125.658 19.4779C125.339 20.2106 124.872 20.8698 124.288 21.4144C123.703 21.959 123.012 22.3773 122.258 22.6432C121.505 22.9092 120.704 23.0171 119.907 22.9602C119.145 22.9699 118.388 22.8258 117.683 22.5365C116.977 22.2472 116.337 21.8186 115.801 21.2763L115.299 20.7151L117.219 19.238C117.31 19.3438 117.409 19.4425 117.515 19.5335C117.99 20.0048 118.593 20.3254 119.25 20.4549C119.906 20.5845 120.586 20.5172 121.205 20.2616C121.823 20.006 122.353 19.5735 122.726 19.0183C123.1 18.463 123.301 17.8099 123.305 17.1407C123.312 16.694 123.227 16.2506 123.054 15.8386C122.881 15.4267 122.624 15.0552 122.3 14.7479C121.66 14.1236 120.801 13.7741 119.907 13.7741C119.013 13.7741 118.155 14.1236 117.515 14.7479L117.16 15.1615L114.915 14.1276Z" fill="#0E1823"/>
<path d="M129.124 6.50781H131.546V9.90497H133.466V12.3273H131.546V22.4892H129.124V6.50781Z" fill="#0E1823"/>
<path d="M138.311 13.8043V22.4892H135.889V6.50781H138.311V10.3776C139.263 9.76685 140.362 9.42409 141.493 9.38539C142.624 9.3467 143.744 9.6135 144.735 10.1577C145.727 10.702 146.554 11.5035 147.128 12.4779C147.703 13.4524 148.004 14.5637 148 15.6949V22.4892H145.578V15.6949C145.589 15.1845 145.495 14.6772 145.302 14.2045C145.109 13.7319 144.821 13.3041 144.455 12.9476C144.095 12.5876 143.666 12.303 143.195 12.1103C142.723 11.9175 142.218 11.8206 141.708 11.8251C141.203 11.8178 140.701 11.9136 140.234 12.1066C139.766 12.2996 139.343 12.5858 138.99 12.9476C138.73 13.2048 138.502 13.4925 138.311 13.8043V13.8043Z" fill="#0E1823"/>
</svg>
