<svg width="40" height="60" viewBox="0 0 40 60" fill="none" xmlns="http://www.w3.org/2000/svg">
<path d="M39.9083 15.7788L39.9083 21.819C39.9083 22.4293 39.6659 23.0145 39.2343 23.4461C38.8028 23.8776 38.2175 24.12 37.6073 24.12H14.4173C7.83784 24.12 4.13464 26.3132 2.12125 28.2906C1.94348 28.4581 1.72081 28.5703 1.48039 28.6134C1.23997 28.6565 0.9922 28.6287 0.767302 28.5334C0.542403 28.4381 0.350096 28.2794 0.213846 28.0767C0.0775971 27.874 0.00329726 27.636 0 27.3918L0 16.7855C0 16.3374 0.178029 15.9075 0.49493 15.5906C0.811831 15.2737 1.24164 15.0957 1.6898 15.0957H39.2611C39.436 15.1049 39.6006 15.1809 39.7211 15.3081C39.8415 15.4352 39.9085 15.6037 39.9083 15.7788V15.7788Z" fill="#0E1823"/>
<path d="M39.2965 0.104868C39.3445 0.0570546 39.405 0.0237672 39.4711 0.00884052C39.5371 -0.0060862 39.6061 -0.00205105 39.67 0.0204929C39.7338 0.0430368 39.79 0.0831675 39.8321 0.13626C39.8742 0.189352 39.9004 0.253243 39.9077 0.32058V8.84155C39.9077 9.45181 39.6653 10.0371 39.2338 10.4686C38.8022 10.9001 38.217 11.1426 37.6067 11.1426L17.8683 11.1426C17.7692 11.1426 17.671 11.123 17.5794 11.0851C17.4878 11.0471 17.4045 10.9915 17.3344 10.9214C17.2643 10.8513 17.2087 10.7681 17.1708 10.6765C17.1328 10.5849 17.1133 10.4867 17.1133 10.3875V4.1676C17.1133 3.71943 17.2913 3.28963 17.6082 2.97273C17.9251 2.65583 18.3549 2.47779 18.8031 2.47779L32.753 2.47779C36.3483 2.47779 38.3977 1.0037 39.2965 0.104868Z" fill="#0E1823"/>
<path d="M11.4693 55.4718L5.71676 59.894C5.46508 60.1098 4.92578 59.9659 4.92578 59.7143L4.92578 33.684C4.92578 31.2392 8.05372 29.2617 11.9367 29.2617L11.9367 54.6448C11.9298 54.8098 11.8839 54.9708 11.8026 55.1146C11.7214 55.2584 11.6071 55.3808 11.4693 55.4718V55.4718Z" fill="#0E1823"/>
<path d="M24.3052 46.2677L18.5527 50.69C18.301 50.9057 17.7617 50.7619 17.7617 50.5102L17.7617 29.4415C17.7617 29.3336 17.9055 29.2617 18.0493 29.2617H24.485C24.6288 29.2617 24.7726 29.3336 24.7726 29.4415L24.7726 45.4408C24.7658 45.6058 24.7198 45.7668 24.6386 45.9105C24.5573 46.0543 24.4431 46.1767 24.3052 46.2677V46.2677Z" fill="#0E1823"/>
<path d="M36.3851 37.567L30.6326 42.2409C30.345 42.4566 29.8057 42.3488 29.8057 42.0611L29.8057 29.4415C29.8057 29.3336 29.9495 29.2617 30.0933 29.2617H36.5289C36.7087 29.2617 36.8166 29.3336 36.8166 29.4415V36.776C36.811 36.9323 36.7692 37.0851 36.6943 37.2224C36.6194 37.3597 36.5136 37.4777 36.3851 37.567V37.567Z" fill="#0E1823"/>
</svg>
